<svg width="3080" height="570" viewBox="0 0 3080 570" fill="none" xmlns="http://www.w3.org/2000/svg">
<path d="M449.56 41.7273V529H371.045L141.446 197.093H137.401V529H49.1304V41.7273H128.122L357.483 373.872H361.765V41.7273H449.56ZM609.742 529V41.7273H926.659V115.722H698.012V248.009H910.242V322.004H698.012V455.005H928.563V529H609.742ZM1154.47 41.7273L1261.78 220.172H1265.58L1373.36 41.7273H1474.01L1323.87 285.364L1476.39 529H1374.08L1265.58 351.745H1261.78L1153.28 529H1051.45L1205.39 285.364L1053.35 41.7273H1154.47Z" fill="#FEFEFF"/>
<path d="M449.56 41.7273H461.56V29.7273H449.56V41.7273ZM449.56 529V541H461.56V529H449.56ZM371.045 529L361.176 535.827L364.754 541H371.045V529ZM141.446 197.093L151.315 190.266L147.736 185.093H141.446V197.093ZM137.401 197.093V185.093H125.401V197.093H137.401ZM137.401 529V541H149.401V529H137.401ZM49.1304 529H37.1304V541H49.1304V529ZM49.1304 41.7273V29.7273H37.1304V41.7273H49.1304ZM128.122 41.7273L137.996 34.9085L134.418 29.7273H128.122V41.7273ZM357.483 373.872L347.608 380.691L351.186 385.872H357.483V373.872ZM361.765 373.872V385.872H373.765V373.872H361.765ZM361.765 41.7273V29.7273H349.765V41.7273H361.765ZM437.56 41.7273V529H461.56V41.7273H437.56ZM449.56 517H371.045V541H449.56V517ZM380.913 522.173L151.315 190.266L131.577 203.92L361.176 535.827L380.913 522.173ZM141.446 185.093H137.401V209.093H141.446V185.093ZM125.401 197.093V529H149.401V197.093H125.401ZM137.401 517H49.1304V541H137.401V517ZM61.1304 529V41.7273H37.1304V529H61.1304ZM49.1304 53.7273H128.122V29.7273H49.1304V53.7273ZM118.247 48.546L347.608 380.691L367.357 367.053L137.996 34.9085L118.247 48.546ZM357.483 385.872H361.765V361.872H357.483V385.872ZM373.765 373.872V41.7273H349.765V373.872H373.765ZM361.765 53.7273H449.56V29.7273H361.765V53.7273ZM609.742 529H597.742V541H609.742V529ZM609.742 41.7273V29.7273H597.742V41.7273H609.742ZM926.659 41.7273H938.659V29.7273H926.659V41.7273ZM926.659 115.722V127.722H938.659V115.722H926.659ZM698.012 115.722V103.722H686.012V115.722H698.012ZM698.012 248.009H686.012V260.009H698.012V248.009ZM910.242 248.009H922.242V236.009H910.242V248.009ZM910.242 322.004V334.004H922.242V322.004H910.242ZM698.012 322.004V310.004H686.012V322.004H698.012ZM698.012 455.005H686.012V467.005H698.012V455.005ZM928.563 455.005H940.563V443.005H928.563V455.005ZM928.563 529V541H940.563V529H928.563ZM621.742 529V41.7273H597.742V529H621.742ZM609.742 53.7273H926.659V29.7273H609.742V53.7273ZM914.659 41.7273V115.722H938.659V41.7273H914.659ZM926.659 103.722H698.012V127.722H926.659V103.722ZM686.012 115.722V248.009H710.012V115.722H686.012ZM698.012 260.009H910.242V236.009H698.012V260.009ZM898.242 248.009V322.004H922.242V248.009H898.242ZM910.242 310.004H698.012V334.004H910.242V310.004ZM686.012 322.004V455.005H710.012V322.004H686.012ZM698.012 467.005H928.563V443.005H698.012V467.005ZM916.563 455.005V529H940.563V455.005H916.563ZM928.563 517H609.742V541H928.563V517ZM1154.47 41.7273L1164.76 35.5432L1161.26 29.7273H1154.47V41.7273ZM1261.78 220.172L1251.49 226.356L1254.99 232.172H1261.78V220.172ZM1265.58 220.172V232.172H1272.35L1275.85 226.376L1265.58 220.172ZM1373.36 41.7273V29.7273H1366.59L1363.09 35.5231L1373.36 41.7273ZM1474.01 41.7273L1484.22 48.0225L1495.5 29.7273H1474.01V41.7273ZM1323.87 285.364L1313.66 279.068L1309.75 285.413L1313.7 291.731L1323.87 285.364ZM1476.39 529V541H1498.05L1486.56 522.633L1476.39 529ZM1374.08 529L1363.84 535.265L1367.35 541H1374.08V529ZM1265.58 351.745L1275.82 345.48L1272.31 339.745H1265.58V351.745ZM1261.78 351.745V339.745H1255.05L1251.54 345.48L1261.78 351.745ZM1153.28 529V541H1160.01L1163.52 535.265L1153.28 529ZM1051.45 529L1041.3 522.59L1029.67 541H1051.45V529ZM1205.39 285.364L1215.53 291.773L1219.56 285.403L1215.57 279.011L1205.39 285.364ZM1053.35 41.7273V29.7273H1031.72L1043.17 48.0801L1053.35 41.7273ZM1144.19 47.9113L1251.49 226.356L1272.06 213.988L1164.76 35.5432L1144.19 47.9113ZM1261.78 232.172H1265.58V208.172H1261.78V232.172ZM1275.85 226.376L1383.64 47.9314L1363.09 35.5231L1255.31 213.968L1275.85 226.376ZM1373.36 53.7273H1474.01V29.7273H1373.36V53.7273ZM1463.79 35.432L1313.66 279.068L1334.09 291.659L1484.22 48.0225L1463.79 35.432ZM1313.7 291.731L1466.21 535.367L1486.56 522.633L1334.05 278.997L1313.7 291.731ZM1476.39 517H1374.08V541H1476.39V517ZM1384.31 522.735L1275.82 345.48L1255.35 358.01L1363.84 535.265L1384.31 522.735ZM1265.58 339.745H1261.78V363.745H1265.58V339.745ZM1251.54 345.48L1143.05 522.735L1163.52 535.265L1272.01 358.01L1251.54 345.48ZM1153.28 517H1051.45V541H1153.28V517ZM1061.59 535.41L1215.53 291.773L1195.24 278.954L1041.3 522.59L1061.59 535.41ZM1215.57 279.011L1063.53 35.3744L1043.17 48.0801L1195.21 291.716L1215.57 279.011ZM1053.35 53.7273H1154.47V29.7273H1053.35V53.7273ZM1916.07 197.331L1904.6 200.87L1907.22 209.331H1916.07V197.331ZM1899.65 162.832L1889.65 169.453L1889.7 169.542L1889.77 169.63L1899.65 162.832ZM1874.91 136.422L1867.61 145.945L1867.65 145.974L1867.68 146.003L1874.91 136.422ZM1842.08 120.005L1838.55 131.474L1838.61 131.495L1838.68 131.515L1842.08 120.005ZM1731.68 134.043L1738.17 144.134L1738.17 144.134L1731.68 134.043ZM1683.38 192.097L1672.48 187.085L1672.47 187.1L1672.46 187.116L1683.38 192.097ZM1683.38 378.393L1672.45 383.348L1672.45 383.348L1683.38 378.393ZM1731.68 436.685L1725.17 446.764L1725.19 446.781L1725.22 446.799L1731.68 436.685ZM1867.77 442.157L1862.22 431.518L1862.2 431.528L1862.18 431.538L1867.77 442.157ZM1909.88 401.71L1920.34 407.602L1920.35 407.581L1920.36 407.561L1909.88 401.71ZM1924.64 339.849L1926.47 327.99L1912.64 325.849V339.849H1924.64ZM1944.62 342.942V354.942L1946.46 331.083L1944.62 342.942ZM1812.34 342.942H1800.34V354.942H1812.34V342.942ZM1812.34 273.943V261.943H1800.34V273.943H1812.34ZM2010.05 273.943H2022.05V261.943H2010.05V273.943ZM1983.4 440.729L1993.77 446.776L1993.77 446.776L1983.4 440.729ZM1910.12 511.156L1915.71 521.778L1915.73 521.767L1915.75 521.756L1910.12 511.156ZM1684.81 505.445L1678.63 515.731L1678.65 515.748L1678.68 515.765L1684.81 505.445ZM1605.58 419.078L1594.86 424.481L1594.88 424.508L1594.89 424.535L1605.58 419.078ZM1593.92 180.438L1582.64 176.333L1582.63 176.358L1582.62 176.384L1593.92 180.438ZM1641.03 101.685L1649.8 109.875L1649.81 109.859L1649.83 109.843L1641.03 101.685ZM1711.93 52.196L1716.53 63.2787L1716.56 63.2672L1716.59 63.2556L1711.93 52.196ZM1875.86 46.9616L1872 58.3224L1872.03 58.3342L1872.07 58.3458L1875.86 46.9616ZM1937.96 80.2713L1930.47 89.6498L1930.49 89.6657L1930.51 89.6815L1937.96 80.2713ZM1982.93 131.663L1993.25 125.55L1993.25 125.55L1982.93 131.663ZM2006.01 197.331V209.331H2019.97L2017.87 195.524L2006.01 197.331ZM1927.54 193.792C1923.25 179.889 1917.27 167.272 1909.54 156.033L1889.77 169.63C1896 178.694 1900.96 189.076 1904.6 200.87L1927.54 193.792ZM1909.66 156.211C1902.1 144.786 1892.92 134.975 1882.13 126.841L1867.68 146.003C1876.25 152.461 1883.56 160.257 1889.65 169.453L1909.66 156.211ZM1882.21 126.899C1871.44 118.64 1859.15 112.528 1845.47 108.495L1838.68 131.515C1849.75 134.778 1859.35 139.611 1867.61 145.945L1882.21 126.899ZM1845.6 108.536C1831.95 104.335 1817.27 102.295 1801.63 102.295V126.295C1815.18 126.295 1827.45 128.061 1838.55 131.474L1845.6 108.536ZM1801.63 102.295C1773.34 102.295 1747.73 109.445 1725.19 123.951L1738.17 144.134C1756.55 132.31 1777.58 126.295 1801.63 126.295V102.295ZM1725.19 123.951C1702.52 138.537 1685.02 159.798 1672.48 187.085L1694.28 197.108C1705.22 173.32 1719.92 155.879 1738.17 144.134L1725.19 123.951ZM1672.46 187.116C1659.99 214.461 1654.01 247.193 1654.01 284.888H1678.01C1678.01 249.618 1683.61 220.49 1694.3 197.078L1672.46 187.116ZM1654.01 284.888C1654.01 322.886 1659.98 355.848 1672.45 383.348L1694.31 373.437C1683.62 349.862 1678.01 320.488 1678.01 284.888H1654.01ZM1672.45 383.348C1684.84 410.676 1702.35 432.02 1725.17 446.764L1738.19 426.606C1719.77 414.701 1705.08 397.185 1694.31 373.437L1672.45 383.348ZM1725.22 446.799C1747.99 461.334 1774.23 468.433 1803.53 468.433V444.433C1778.27 444.433 1756.61 438.365 1738.14 426.57L1725.22 446.799ZM1803.53 468.433C1829.82 468.433 1853.23 463.372 1873.36 452.776L1862.18 431.538C1846.15 439.976 1826.74 444.433 1803.53 444.433V468.433ZM1873.32 452.796C1893.56 442.236 1909.33 427.131 1920.34 407.602L1899.43 395.817C1890.77 411.184 1878.46 423.044 1862.22 431.518L1873.32 452.796ZM1920.36 407.561C1931.35 387.881 1936.64 365.177 1936.64 339.849H1912.64C1912.64 361.788 1908.08 380.325 1899.41 395.858L1920.36 407.561ZM1922.8 351.708L1942.79 354.801L1946.46 331.083L1926.47 327.99L1922.8 351.708ZM1944.62 330.942H1812.34V354.942H1944.62V330.942ZM1824.34 342.942V273.943H1800.34V342.942H1824.34ZM1812.34 285.943H2010.05V261.943H1812.34V285.943ZM1998.05 273.943V332.473H2022.05V273.943H1998.05ZM1998.05 332.473C1998.05 372.456 1989.55 406.375 1973.04 434.683L1993.77 446.776C2012.79 414.175 2022.05 375.922 2022.05 332.473H1998.05ZM1973.04 434.683C1956.4 463.212 1933.61 485.108 1904.5 500.555L1915.75 521.756C1948.81 504.21 1974.88 479.156 1993.77 446.776L1973.04 434.683ZM1904.54 500.533C1875.41 515.841 1841.69 523.662 1803.06 523.662V547.662C1845 547.662 1882.66 539.146 1915.71 521.778L1904.54 500.533ZM1803.06 523.662C1760.02 523.662 1722.78 514.026 1690.93 495.126L1678.68 515.765C1714.72 537.154 1756.31 547.662 1803.06 547.662V523.662ZM1690.99 495.16C1659.25 476.085 1634.34 449.026 1616.26 413.621L1594.89 424.535C1614.88 463.681 1642.8 494.199 1678.63 515.731L1690.99 495.16ZM1616.29 413.675C1598.43 378.254 1589.26 335.772 1589.26 285.839H1565.26C1565.26 338.691 1574.97 385.035 1594.86 424.481L1616.29 413.675ZM1589.26 285.839C1589.26 247.62 1594.66 213.894 1605.21 184.493L1582.62 176.384C1570.97 208.843 1565.26 245.385 1565.26 285.839H1589.26ZM1605.19 184.544C1615.97 154.955 1630.88 130.139 1649.8 109.875L1632.26 93.4945C1610.89 116.375 1594.39 144.061 1582.64 176.333L1605.19 184.544ZM1649.83 109.843C1668.81 89.3658 1691.02 73.8728 1716.53 63.2787L1707.33 41.1133C1678.6 53.0429 1653.53 70.5423 1632.23 93.5266L1649.83 109.843ZM1716.59 63.2556C1742.12 52.506 1770.02 47.0653 1800.44 47.0653V23.0653C1767.09 23.0653 1735.99 29.0451 1707.27 41.1364L1716.59 63.2556ZM1800.44 47.0653C1826.21 47.0653 1850.04 50.853 1872 58.3224L1879.73 35.6008C1855.05 27.2085 1828.59 23.0653 1800.44 23.0653V47.0653ZM1872.07 58.3458C1894.13 65.6998 1913.56 76.1496 1930.47 89.6498L1945.45 70.8929C1926.19 55.5246 1904.23 43.768 1879.66 35.5774L1872.07 58.3458ZM1930.51 89.6815C1947.61 103.211 1961.62 119.228 1972.6 137.776L1993.25 125.55C1980.76 104.444 1964.79 86.1995 1945.41 70.8611L1930.51 89.6815ZM1972.6 137.776C1983.52 156.213 1990.72 176.628 1994.14 199.138L2017.87 195.524C2014 170.132 2005.82 146.768 1993.25 125.55L1972.6 137.776ZM2006.01 185.331H1916.07V209.331H2006.01V185.331ZM2159.41 529H2147.41V541H2159.41V529ZM2159.41 41.7273V29.7273H2147.41V41.7273H2159.41ZM2476.33 41.7273H2488.33V29.7273H2476.33V41.7273ZM2476.33 115.722V127.722H2488.33V115.722H2476.33ZM2247.68 115.722V103.722H2235.68V115.722H2247.68ZM2247.68 248.009H2235.68V260.009H2247.68V248.009ZM2459.91 248.009H2471.91V236.009H2459.91V248.009ZM2459.91 322.004V334.004H2471.91V322.004H2459.91ZM2247.68 322.004V310.004H2235.68V322.004H2247.68ZM2247.68 455.005H2235.68V467.005H2247.68V455.005ZM2478.23 455.005H2490.23V443.005H2478.23V455.005ZM2478.23 529V541H2490.23V529H2478.23ZM2171.41 529V41.7273H2147.41V529H2171.41ZM2159.41 53.7273H2476.33V29.7273H2159.41V53.7273ZM2464.33 41.7273V115.722H2488.33V41.7273H2464.33ZM2476.33 103.722H2247.68V127.722H2476.33V103.722ZM2235.68 115.722V248.009H2259.68V115.722H2235.68ZM2247.68 260.009H2459.91V236.009H2247.68V260.009ZM2447.91 248.009V322.004H2471.91V248.009H2447.91ZM2459.91 310.004H2247.68V334.004H2459.91V310.004ZM2235.68 322.004V455.005H2259.68V322.004H2235.68ZM2247.68 467.005H2478.23V443.005H2247.68V467.005ZM2466.23 455.005V529H2490.23V455.005H2466.23ZM2478.23 517H2159.41V541H2478.23V517ZM3030.81 41.7273H3042.81V29.7273H3030.81V41.7273ZM3030.81 529V541H3042.81V529H3030.81ZM2952.29 529L2942.43 535.827L2946 541H2952.29V529ZM2722.7 197.093L2732.56 190.266L2728.99 185.093H2722.7V197.093ZM2718.65 197.093V185.093H2706.65V197.093H2718.65ZM2718.65 529V541H2730.65V529H2718.65ZM2630.38 529H2618.38V541H2630.38V529ZM2630.38 41.7273V29.7273H2618.38V41.7273H2630.38ZM2709.37 41.7273L2719.25 34.9085L2715.67 29.7273H2709.37V41.7273ZM2938.73 373.872L2928.86 380.691L2932.44 385.872H2938.73V373.872ZM2943.02 373.872V385.872H2955.02V373.872H2943.02ZM2943.02 41.7273V29.7273H2931.02V41.7273H2943.02ZM3018.81 41.7273V529H3042.81V41.7273H3018.81ZM3030.81 517H2952.29V541H3030.81V517ZM2962.16 522.173L2732.56 190.266L2712.83 203.92L2942.43 535.827L2962.16 522.173ZM2722.7 185.093H2718.65V209.093H2722.7V185.093ZM2706.65 197.093V529H2730.65V197.093H2706.65ZM2718.65 517H2630.38V541H2718.65V517ZM2642.38 529V41.7273H2618.38V529H2642.38ZM2630.38 53.7273H2709.37V29.7273H2630.38V53.7273ZM2699.5 48.546L2928.86 380.691L2948.61 367.053L2719.25 34.9085L2699.5 48.546ZM2938.73 385.872H2943.02V361.872H2938.73V385.872ZM2955.02 373.872V41.7273H2931.02V373.872H2955.02ZM2943.02 53.7273H3030.81V29.7273H2943.02V53.7273Z" fill="#FEFEFF"/>
</svg>
